<?xml version="1.0" encoding="UTF-8"?>
<svg xmlns="http://www.w3.org/2000/svg" version="1.1" viewBox="0 0 500 500">
  <!-- Generator: Adobe Illustrator 29.5.0, SVG Export Plug-In . SVG Version: 2.1.0 Build 137)  -->
  <defs>
    <style>
      .st0 {
        fill: #00b5e8;
      }

      .st1 {
        fill: #fff;
      }

      .st2 {
        mix-blend-mode: overlay;
        opacity: .5;
      }

      .st3 {
        isolation: isolate;
      }

      .st4 {
        fill: #017dc0;
      }
    </style>
  </defs>
  <g class="st3">
    <g id="OBJECTS">
      <g>
        <g>
          <path class="st0" d="M247.01,193.56L117.35,110.68c-23.79-15.21-55,1.88-55,30.12v218.38c0,29.19,33.09,46.07,56.72,28.94l46.64-33.8c1.44-1.04,2.3-2.72,2.3-4.5h0c0-17.24-8.79-33.29-23.32-42.58l-12.41-7.93v32.28c0,1.78-.85,3.45-2.3,4.5l-23.1,16.74c-3.67,2.66-8.82.04-8.82-4.5v-197.43c0-4.39,4.85-7.04,8.55-4.68l140.39,89.73c1.82,1.17,4.16,1.17,5.98,0l77.62-49.61c22.13-14.14,35.51-38.59,35.51-64.85v-.26l-113.14,72.31c-1.82,1.17-4.16,1.17-5.98,0Z"/>
          <path class="st4" d="M380.93,388.14l-46.66-33.81c-1.44-1.04-2.3-2.72-2.3-4.5v-59.96c0-4.38-4.84-7.04-8.54-4.69l-70.45,44.81c-1.82,1.16-4.15,1.16-5.97,0l-79.12-50.39c-22.19-14.13-35.62-38.61-35.62-64.91h0l114.74,72.97c1.82,1.16,4.14,1.16,5.96,0l89.11-56.68c11.09-7.06,25.61.91,25.61,14.06v86.57c0,1.78.85,3.45,2.3,4.5l23.11,16.74c3.67,2.66,8.81.04,8.81-4.5l-.03-243.35h0c19.74,0,35.74,16,35.75,35.74v218.45c.01,29.19-33.07,46.07-56.71,28.95Z"/>
        </g>
        <g class="st2">
          <path class="st1" d="M98.4,359.47c-2.87,0-5.59-1.09-7.68-3.07-2.22-2.11-3.44-4.96-3.44-8.06v-197.43c0-6.13,5-11.11,11.13-11.11.89,0,1.76.11,2.61.33-4.87,1.17-8.48,5.56-8.48,10.78v197.43c0,3.09,1.2,5.94,3.43,8.06,1.44,1.35,3.18,2.3,5.06,2.74-.85.22-1.72.33-2.61.33Z"/>
          <path class="st1" d="M162.45,349.82l-46.64,33.81c-5.24,3.8-11.31,5.81-17.57,5.81-.87,0-1.76-.04-2.63-.13,5.33-.48,10.46-2.43,14.96-5.68l46.65-33.81c0-14.87-7.2-28.57-19.37-36.96v-3.39l3.85,2.46c13,8.3,20.76,22.46,20.76,37.89Z"/>
          <path class="st1" d="M247.39,199.66c-.85.2-1.74.32-2.63.32-2.13,0-4.2-.59-5.98-1.74L109.1,115.37c-4.17-2.67-8.81-4.26-13.57-4.68.89-.09,1.78-.13,2.65-.13,5.67,0,11.26,1.67,16.18,4.81l129.66,82.86c1.04.67,2.18,1.15,3.37,1.43Z"/>
          <path class="st1" d="M359.83,131.87c-2.94,20.37-14.52,38.5-32.2,49.79l-77.62,49.61-2.61-1.67,74.99-47.94c16.57-10.59,27.79-27.2,31.55-46.03l5.89-3.76Z"/>
          <path class="st1" d="M244.04,292.34c1.04.65,2.17,1.13,3.33,1.41-.85.22-1.72.33-2.61.33-2.13,0-4.18-.61-5.96-1.74l-99.51-63.29c-.26-1.24-.48-2.5-.67-3.76l105.42,67.05Z"/>
          <path class="st1" d="M389.84,357.34c1.18.85,2.5,1.46,3.89,1.8-.85.22-1.74.33-2.63.33-2.33,0-4.57-.74-6.5-2.13l-23.11-16.74c-2.87-2.07-4.59-5.44-4.59-9v-86.57c0-5.78-4.09-9.7-8.57-10.8.87-.22,1.76-.33,2.67-.33,5.37,0,11.15,4.26,11.15,11.13v86.57c0,3.56,1.72,6.93,4.59,9l23.11,16.74Z"/>
          <path class="st1" d="M432.1,359.19c0,8.39-3.3,16.13-9.26,21.79-5.67,5.37-13.35,8.46-21.07,8.46-.89,0-1.78-.04-2.67-.13,6.83-.59,13.46-3.56,18.48-8.33,5.98-5.67,9.26-13.41,9.26-21.79v-218.45c0-12.83-8.06-23.81-19.39-28.18v-1.5c14,2.63,24.63,14.94,24.63,29.68l.02,218.45Z"/>
        </g>
      </g>
    </g>
  </g>
</svg>